<svg xmlns="http://www.w3.org/2000/svg" width="166" height="125" fill="none" viewBox="0 0 166 125"><path fill="url(#a)" stroke="#0500FF" stroke-width=".538" d="M164.805 50.244h-27.41v38.61h27.41L152.958 69.55l11.847-19.305Z"/><path fill="#888" d="m147.797 84.29-10.385 4.565v-4.566h10.385Z"/><path fill="#DEDEDE" d="M1.165 50.244h27.41v38.61H1.165L13.012 69.55 1.165 50.244Z"/><path fill="url(#b)" d="M1.165 50.244h27.41v38.61H1.165L13.012 69.55 1.165 50.244Z"/><path stroke="#0500FF" stroke-width=".538" d="M1.165 50.244h27.41v38.61H1.165L13.012 69.55 1.165 50.244Z"/><path fill="#888" d="m18.172 84.29 10.386 4.565v-4.566H18.172Z"/><circle cx="82.984" cy="62.504" r="61.841" fill="url(#c)"/><path fill="url(#d)" fill-rule="evenodd" d="M82.984 124.345c34.154 0 61.841-27.687 61.841-61.841 0-34.154-27.687-61.842-61.841-61.842-34.154 0-61.841 27.688-61.841 61.842 0 34.154 27.687 61.841 61.841 61.841Zm0-7.432c30.05 0 54.41-24.36 54.41-54.41 0-30.05-24.36-54.41-54.41-54.41-30.05 0-54.41 24.36-54.41 54.41 0 30.05 24.36 54.41 54.41 54.41Z" clip-rule="evenodd"/><mask id="f" width="124" height="125" x="21" y="0" maskUnits="userSpaceOnUse" style="mask-type:alpha"><path fill="url(#e)" fill-rule="evenodd" d="M82.984 124.347c34.154 0 61.841-27.687 61.841-61.841 0-34.155-27.687-61.842-61.841-61.842-34.154 0-61.841 27.687-61.841 61.841 0 34.155 27.687 61.842 61.841 61.842Zm0-7.432c30.05 0 54.41-24.36 54.41-54.41 0-30.05-24.36-54.41-54.41-54.41-30.05 0-54.41 24.36-54.41 54.41 0 30.05 24.36 54.41 54.41 54.41Z" clip-rule="evenodd"/></mask><g mask="url(#f)"><path fill="#0500FF" d="m141.05 25.983 9.13 16.744-22.463 8.619-6.305-10.98 19.638-14.383Z"/><path fill="#fff" d="m77.81 140.294 48.159-14.06-17.053-22.901-28.794 4.882-2.313 32.079Z"/><path fill="#0500FF" d="m40.962 10.076 11.362-6.684 7.848 16.666-7.848 5.817-11.362-15.799ZM23.6 27.842l12.146-13.636 14.536 16.71-6.755 10.571L23.6 27.842Z"/></g><circle cx="82.984" cy="62.503" r="53.994" stroke="url(#g)" stroke-width=".832"/><circle cx="82.984" cy="62.504" r="61.425" stroke="#0500FF" stroke-width=".832"/><path fill="#fff" stroke="#0500FF" stroke-width=".538" d="M18.509 40.976H147.46v43.053H18.509z"/><mask id="h" width="118" height="23" x="24" y="51" maskUnits="userSpaceOnUse" style="mask-type:luminance"><path fill="#fff" d="M141.23 51.266H24.74V73.74h116.49V51.266Z"/></mask><g fill="#1B1B1C" mask="url(#h)"><path d="m52.143 57.508 2.903-.783v5.438h6.391v-5.131h2.904v12.214h-2.904V64.76h-6.39v4.486h-2.904V57.508Zm18.313 10.109 1.06-2.489h3.41l-2.38-5.07-4.256 9.188h-3.058l5.792-11.738 2.919-.783 6.007 12.52h-3.073l-.768-1.628h-5.653Zm14.241-3.181c-1.639 0-2.857-.522-3.656-1.567a3.382 3.382 0 0 1-.722-2.12c0-1.065.4-1.951 1.198-2.658.81-.706 1.87-1.06 3.18-1.06h8.296l-.783 2.597h-7.482c-.625 0-1.04.23-1.244.69a1.084 1.084 0 0 0-.093.431c0 .44.215.763.646.968.205.092.435.138.69.138h4.21c1.567 0 2.755.502 3.565 1.506a3.44 3.44 0 0 1 .768 2.197c0 1.065-.4 1.946-1.198 2.642-.8.697-1.844 1.045-3.134 1.045h-8.62l.785-2.597h7.804c.635 0 1.05-.225 1.244-.675a.98.98 0 0 0 .092-.415c0-.44-.204-.763-.614-.968a1.656 1.656 0 0 0-.722-.154h-4.21Zm10.308-6.928 2.903-.783v5.438h6.391v-5.131h2.904v12.214h-2.904V64.76h-6.39v4.486h-2.904V57.508Zm14.551 3.932 2.903-.783v5.992h4.578c.881 0 1.547-.487 1.997-1.46.297-.625.446-1.331.446-2.12 0-1.209-.303-2.136-.907-2.78a2.04 2.04 0 0 0-1.536-.661h-7.481l.783-2.597h7.052c1.658 0 2.975.697 3.948 2.09.809 1.167 1.214 2.545 1.214 4.132 0 1.69-.451 3.093-1.353 4.21-.952 1.178-2.222 1.772-3.809 1.782h-7.835V61.44Zm14.456-4.409h2.904v12.214h-2.904V57.03Zm4.286 2.597V57.03h12.766l-.783 2.597h-4.563v9.617h-2.919v-9.617h-4.501Z"/><path fill-rule="evenodd" d="M35.977 58.757a3.746 3.746 0 1 0 2.716 6.325v8.326c-.87.217-1.78.332-2.716.332-6.206 0-11.237-5.031-11.237-11.237s5.031-11.237 11.237-11.237c.936 0 1.846.114 2.716.33v8.327a3.724 3.724 0 0 0-2.716-1.166Z" clip-rule="evenodd"/><path fill-rule="evenodd" d="M35.977 58.756a3.746 3.746 0 1 0 0 7.492 3.746 3.746 0 0 0 0-7.492Zm-5.244 3.746a5.244 5.244 0 1 1 10.488 0 5.244 5.244 0 0 1-10.488 0Z" clip-rule="evenodd"/><path fill-rule="evenodd" d="M35.977 52.764c-5.378 0-9.738 4.36-9.738 9.739 0 5.378 4.36 9.738 9.738 9.738 5.379 0 9.739-4.36 9.739-9.738 0-5.379-4.36-9.74-9.739-9.74ZM24.74 62.503c0-6.206 5.031-11.237 11.237-11.237s11.237 5.03 11.237 11.237c0 6.206-5.03 11.237-11.237 11.237-6.206 0-11.237-5.031-11.237-11.237Z" clip-rule="evenodd"/><path fill-rule="evenodd" d="M35.977 55.76a6.742 6.742 0 1 0 0 13.484 6.742 6.742 0 0 0 0-13.484Zm-8.24 6.742a8.24 8.24 0 1 1 16.48 0 8.24 8.24 0 0 1-16.48 0Z" clip-rule="evenodd"/></g><defs><linearGradient id="a" x1="168.401" x2="137.395" y1="69.549" y2="69.549" gradientUnits="userSpaceOnUse"><stop offset=".06" stop-color="#2ECCFF"/><stop offset=".777" stop-color="#0500FF"/></linearGradient><linearGradient id="b" x1="-2.431" x2="28.575" y1="69.549" y2="69.549" gradientUnits="userSpaceOnUse"><stop offset=".188" stop-color="#2ECCFF"/><stop offset=".777" stop-color="#0500FF"/></linearGradient><linearGradient id="c" x1="82.984" x2="82.984" y1=".662" y2="124.345" gradientUnits="userSpaceOnUse"><stop offset=".046" stop-color="#2ECCFF"/><stop offset="1" stop-color="#0500FF"/></linearGradient><linearGradient id="d" x1="46.378" x2="121.548" y1="16.225" y2="127.227" gradientUnits="userSpaceOnUse"><stop offset=".06" stop-color="#fff"/><stop offset=".777" stop-color="#fff" stop-opacity="0"/></linearGradient><linearGradient id="e" x1="82.984" x2="82.984" y1=".664" y2="124.347" gradientUnits="userSpaceOnUse"><stop offset=".06" stop-color="#FFF8A3"/><stop offset=".777" stop-color="#FFAEFE"/></linearGradient><linearGradient id="g" x1="82.984" x2="82.984" y1="8.094" y2="116.913" gradientUnits="userSpaceOnUse"><stop offset=".06" stop-color="#FFF8A3"/><stop offset=".777" stop-color="#FFAEFE"/></linearGradient></defs></svg>