<svg xmlns="http://www.w3.org/2000/svg" width="238" height="179" fill="none" viewBox="0 0 238 179"><path fill="url(#a)" stroke="#0500FF" stroke-width=".774" d="M236.871 71.637h-39.47v55.599h39.47l-17.059-27.8 17.059-27.799Z"/><path fill="#888" d="m212.38 120.662-14.954 6.574v-6.574h14.954Z"/><path fill="#DEDEDE" d="M1.232 71.637h39.47v55.599H1.231l17.059-27.8L1.23 71.637Z"/><path fill="url(#b)" d="M1.232 71.637h39.47v55.599H1.231l17.059-27.8L1.23 71.637Z"/><path stroke="#0500FF" stroke-width=".774" d="M1.232 71.637h39.47v55.599H1.231l17.059-27.8L1.23 71.637Z"/><path fill="#888" d="m25.723 120.662 14.954 6.574v-6.574H25.723Z"/><circle cx="119.052" cy="89.29" r="89.052" fill="url(#c)"/><path fill="url(#d)" fill-rule="evenodd" d="M119.052 178.342c49.181 0 89.051-39.869 89.051-89.051S168.233.239 119.052.239C69.87.239 30 40.109 30 89.291c0 49.182 39.87 89.051 89.052 89.051Zm0-10.702c43.271 0 78.35-35.078 78.35-78.35 0-43.271-35.079-78.35-78.35-78.35-43.272 0-78.35 35.079-78.35 78.35 0 43.272 35.078 78.35 78.35 78.35Z" clip-rule="evenodd"/><mask id="f" width="180" height="179" x="29" y="0" maskUnits="userSpaceOnUse" style="mask-type:alpha"><path fill="url(#e)" fill-rule="evenodd" d="M119.051 178.342c49.182 0 89.052-39.869 89.052-89.051S168.233.239 119.051.239C69.87.239 30 40.109 30 89.291c0 49.182 39.87 89.051 89.051 89.051Zm0-10.702c43.272 0 78.35-35.078 78.35-78.35 0-43.271-35.078-78.35-78.35-78.35-43.271 0-78.35 35.079-78.35 78.35 0 43.272 35.079 78.35 78.35 78.35Z" clip-rule="evenodd"/></mask><g mask="url(#f)"><path fill="#48FF91" d="m202.667 36.7 13.148 24.112-32.348 12.41-9.079-15.811 28.279-20.71Z"/><path fill="#fff" d="m111.6 201.309 69.351-20.246-24.558-32.979-41.463 7.032-3.33 46.193Z"/><path fill="#48FF91" d="M58.54 13.794 74.901 4.17l11.3 24-11.3 8.376-16.36-22.75Zm-25 25.583 17.49-19.636 20.93 24.062-9.727 15.224-28.694-19.65Z"/></g><circle cx="119.051" cy="89.29" r="77.751" stroke="url(#g)" stroke-width="1.198"/><circle cx="119.052" cy="89.29" r="88.453" stroke="#0500FF" stroke-width="1.198"/><path fill="#fff" stroke="#0500FF" stroke-width=".774" d="M26.206 58.292h185.69v61.996H26.206z"/><path fill="#000" d="M170.412 90.959h-16.448V79.261h43.437v20.007h-19.425v-4.007h16.357v-4.266h-12.27v-4.09h12.266V82.64h-36.324v4.153h16.39v12.484h-20.409v-4.023h16.422V90.96h.004Zm-57.759-11.726h20.334v11.662h-12.953v-3.987h8.94v-4.246h-12.329v12.506h16.331v4.093h-20.323V79.233Zm-48.036.007h3.859v15.913H81V79.246h3.952v20.019H64.617V79.24ZM40.588 99.27V79.268h20.37v3.287H44.626v12.626h16.322v4.087h-20.36v.002Zm68.355-16.69H92.64v16.67h-4.106V79.258h20.409v3.323Z"/><path fill="#BCBCBD" d="M145.343 82.833h-4.053v8.302h4.053v-8.302Zm0 12.356h-4.053v8.302h4.053v-8.302Zm-4.053-4.053h-8.303v4.053h8.303v-4.053Zm12.356 0h-8.303v4.053h8.303v-4.053Z"/><path fill="#A6A5A5" d="M145.343 91.136h-4.053v4.053h4.053v-4.053Z"/><defs><linearGradient id="a" x1="242.05" x2="197.401" y1="99.437" y2="99.437" gradientUnits="userSpaceOnUse"><stop offset=".06" stop-color="#FFF8A3"/><stop offset=".777" stop-color="#48FF91"/></linearGradient><linearGradient id="b" x1="-3.947" x2="40.701" y1="99.437" y2="99.437" gradientUnits="userSpaceOnUse"><stop offset=".188" stop-color="#FFF8A3"/><stop offset=".777" stop-color="#48FF91"/></linearGradient><linearGradient id="c" x1="119.052" x2="119.052" y1=".238" y2="178.342" gradientUnits="userSpaceOnUse"><stop offset=".06" stop-color="#FFF465"/><stop offset=".777" stop-color="#48FF91"/></linearGradient><linearGradient id="d" x1="66.339" x2="174.584" y1="22.649" y2="182.493" gradientUnits="userSpaceOnUse"><stop offset=".06" stop-color="#fff"/><stop offset=".777" stop-color="#fff" stop-opacity="0"/></linearGradient><linearGradient id="e" x1="119.051" x2="119.051" y1=".239" y2="178.342" gradientUnits="userSpaceOnUse"><stop offset=".06" stop-color="#FFF8A3"/><stop offset=".777" stop-color="#FFAEFE"/></linearGradient><linearGradient id="g" x1="119.051" x2="119.051" y1="10.94" y2="167.64" gradientUnits="userSpaceOnUse"><stop offset=".046" stop-color="#2ECCFF"/><stop offset="1" stop-color="#0500FF"/></linearGradient></defs></svg>