<svg xmlns="http://www.w3.org/2000/svg" width="238" height="179" fill="none" viewBox="0 0 238 179"><path fill="url(#a)" stroke="#0500FF" stroke-width=".774" d="M237.232 71.636h-39.469v55.599h39.469l-17.059-27.8 17.059-27.799Z"/><path fill="#888" d="m212.741 120.661-14.954 6.574v-6.574h14.954Z"/><path fill="#DEDEDE" d="M1.593 71.636h39.47v55.599H1.592l17.059-27.8-17.06-27.799Z"/><path fill="url(#b)" d="M1.593 71.636h39.47v55.599H1.592l17.059-27.8-17.06-27.799Z"/><path stroke="#0500FF" stroke-width=".774" d="M1.593 71.636h39.47v55.599H1.592l17.059-27.8-17.06-27.799Z"/><path fill="#888" d="m26.083 120.661 14.955 6.574v-6.574H26.083Z"/><circle cx="119.412" cy="89.29" r="89.052" fill="url(#c)"/><path fill="url(#d)" fill-rule="evenodd" d="M119.412 178.342c49.182 0 89.052-39.87 89.052-89.052 0-49.181-39.87-89.051-89.052-89.051-49.182 0-89.051 39.87-89.051 89.051 0 49.182 39.87 89.052 89.051 89.052Zm0-10.702c43.272 0 78.35-35.078 78.35-78.35 0-43.271-35.078-78.35-78.35-78.35-43.271 0-78.35 35.079-78.35 78.35 0 43.272 35.079 78.35 78.35 78.35Z" clip-rule="evenodd"/><mask id="f" width="179" height="179" x="30" y="0" maskUnits="userSpaceOnUse" style="mask-type:alpha"><path fill="url(#e)" fill-rule="evenodd" d="M119.412 178.341c49.182 0 89.052-39.87 89.052-89.052 0-49.181-39.87-89.051-89.052-89.051-49.182 0-89.051 39.87-89.051 89.052 0 49.181 39.87 89.051 89.051 89.051Zm0-10.702c43.272 0 78.35-35.078 78.35-78.35 0-43.271-35.078-78.35-78.35-78.35-43.271 0-78.35 35.079-78.35 78.35 0 43.272 35.079 78.35 78.35 78.35Z" clip-rule="evenodd"/></mask><g mask="url(#f)"><path fill="#48FF91" d="m203.028 36.7 13.148 24.11-32.348 12.411-9.079-15.811 28.279-20.71Z"/><path fill="#fff" d="m111.961 201.308 69.35-20.246-24.557-32.979-41.463 7.031-3.33 46.194Z"/><path fill="#48FF91" d="m58.901 13.793 16.361-9.625 11.3 24-11.3 8.376-16.361-22.75ZM33.9 39.376 51.39 19.74l20.932 24.062-9.728 15.224L33.9 39.376Z"/></g><circle cx="119.412" cy="89.29" r="77.751" stroke="url(#g)" stroke-width="1.198"/><circle cx="119.412" cy="89.29" r="88.453" stroke="#0500FF" stroke-width="1.198"/><path fill="#fff" stroke="#0500FF" stroke-width=".774" d="M26.567 58.291h185.69v61.996H26.567z"/><mask id="h" width="163" height="40" x="38" y="69" maskUnits="userSpaceOnUse" style="mask-type:luminance"><path fill="#fff" d="M200.737 69.994h-161.9v38.592h161.9V69.994Z"/></mask><g fill="#1B1B1C" mask="url(#h)"><path fill-rule="evenodd" d="m72.213 75.918.203 1.228a23.12 23.12 0 0 1 .222 3.448 31.83 31.83 0 0 1-.916 7.563 28.351 28.351 0 0 1-4.218 9.394c-2.274 3.27-5.562 6.487-10.354 9.071l-.586.316-.586-.316c-4.793-2.584-8.079-5.801-10.354-9.071a28.353 28.353 0 0 1-4.218-9.394 31.83 31.83 0 0 1-.916-7.562 23.051 23.051 0 0 1 .222-3.448l.203-1.227a.77.77 0 1 0-1.52-.252l-.203 1.228a24.457 24.457 0 0 0-.243 3.7c.001 2.673.324 5.337.96 7.933a29.89 29.89 0 0 0 4.452 9.905c2.4 3.455 5.882 6.852 10.892 9.548l.952.512a.764.764 0 0 0 .73 0l.95-.512c5.005-2.698 8.488-6.093 10.892-9.548a29.889 29.889 0 0 0 4.45-9.903c.636-2.597.959-5.26.96-7.934a24.468 24.468 0 0 0-.244-3.7l-.203-1.227a.77.77 0 1 0-1.52.251l-.007-.003Z" clip-rule="evenodd"/><path fill-rule="evenodd" d="m45.123 75.082 11.443-3.496 11.698 3.571a.773.773 0 0 0 .45-1.479l-11.924-3.64a.767.767 0 0 0-.449 0L44.672 73.6a.773.773 0 1 0 .45 1.48v.002Z" clip-rule="evenodd"/><path fill-rule="evenodd" d="m39.472 76.146 16.406 32.02a.77.77 0 0 0 1.363.012l10.005-18.712.015-.03 6.404-13.312a.772.772 0 0 0-1.388-.672l-6.393 13.302-9.298 17.4-15.744-30.713a.771.771 0 1 0-1.37.702v.003Z" clip-rule="evenodd"/><path fill-rule="evenodd" d="M47.325 90.404h18.243a.77.77 0 1 0 0-1.54H47.325a.77.77 0 1 0 0 1.54ZM98.21 83.76H86.343a.779.779 0 0 0-.775.775v9.525a.78.78 0 0 0 .775.775H98.21v1.614H86.343a2.373 2.373 0 0 1-2.382-2.382v-9.526a2.372 2.372 0 0 1 2.382-2.381H98.21v1.6Zm22.285-1.608v1.613h-11.43v4.716h9.187v1.627h-9.188v4.724h11.43v1.614H107.45V82.153h13.045Z" clip-rule="evenodd"/><path d="M144.033 84.555v4.187a2.362 2.362 0 0 1-.695 1.687 2.36 2.36 0 0 1-1.686.695h-2.182l4.484 5.318h-2.124l-4.465-5.318h-5.244a7.62 7.62 0 0 1-.775-.08v5.398h-1.613V82.173h11.906a2.367 2.367 0 0 1 2.203 1.469c.12.29.181.6.18.913h.011Zm-11.907 4.942h9.526a.744.744 0 0 0 .754-.755v-4.187a.752.752 0 0 0-.218-.546.704.704 0 0 0-.537-.229h-9.526a.78.78 0 0 0-.775.775v4.187a.704.704 0 0 0 .229.538.757.757 0 0 0 .547.217Z"/><path fill-rule="evenodd" d="M152.568 82.153h14.283v1.613h-6.32v12.682h-1.614V83.767h-6.349v-1.614Zm22.94 14.289v-14.29h1.614v14.29h-1.614Zm23.06-14.29h2.065l-5.973 7.145 5.992 7.145h-2.084l-5.318-6.331h-4.604v6.33h-1.625V82.154h1.628v6.33h4.604l5.315-6.33Z" clip-rule="evenodd"/></g><defs><linearGradient id="a" x1="242.411" x2="197.762" y1="99.436" y2="99.436" gradientUnits="userSpaceOnUse"><stop offset=".06" stop-color="#FFF8A3"/><stop offset=".777" stop-color="#48FF91"/></linearGradient><linearGradient id="b" x1="-3.586" x2="41.062" y1="99.436" y2="99.436" gradientUnits="userSpaceOnUse"><stop offset=".188" stop-color="#FFF8A3"/><stop offset=".777" stop-color="#48FF91"/></linearGradient><linearGradient id="c" x1="119.412" x2="119.412" y1=".238" y2="178.341" gradientUnits="userSpaceOnUse"><stop offset=".06" stop-color="#FFF465"/><stop offset=".777" stop-color="#48FF91"/></linearGradient><linearGradient id="d" x1="66.7" x2="174.944" y1="22.649" y2="182.493" gradientUnits="userSpaceOnUse"><stop offset=".06" stop-color="#fff"/><stop offset=".777" stop-color="#fff" stop-opacity="0"/></linearGradient><linearGradient id="e" x1="119.412" x2="119.412" y1=".238" y2="178.341" gradientUnits="userSpaceOnUse"><stop offset=".06" stop-color="#FFF8A3"/><stop offset=".777" stop-color="#FFAEFE"/></linearGradient><linearGradient id="g" x1="119.412" x2="119.412" y1="10.94" y2="167.64" gradientUnits="userSpaceOnUse"><stop offset=".046" stop-color="#2ECCFF"/><stop offset="1" stop-color="#0500FF"/></linearGradient></defs></svg>