<svg xmlns="http://www.w3.org/2000/svg" width="165" height="125" fill="none" viewBox="0 0 165 125"><path fill="url(#a)" stroke="#0500FF" stroke-width=".538" d="M164.165 50.244h-27.409v38.61h27.409L152.319 69.55l11.846-19.305Z"/><path fill="#888" d="m147.158 84.29-10.386 4.565v-4.566h10.386Z"/><path fill="#DEDEDE" d="M.527 50.244h27.41v38.61H.526L12.374 69.55.527 50.244Z"/><path fill="url(#b)" d="M.527 50.244h27.41v38.61H.526L12.374 69.55.527 50.244Z"/><path stroke="#0500FF" stroke-width=".538" d="M.527 50.244h27.41v38.61H.526L12.374 69.55.527 50.244Z"/><path fill="#888" d="m17.534 84.29 10.385 4.565v-4.566H17.534Z"/><circle cx="82.346" cy="62.504" r="61.841" fill="url(#c)"/><path fill="url(#d)" fill-rule="evenodd" d="M82.346 124.345c34.154 0 61.842-27.687 61.842-61.841C144.188 28.35 116.5.662 82.346.662c-34.154 0-61.841 27.688-61.841 61.842 0 34.154 27.687 61.841 61.841 61.841Zm0-7.432c30.05 0 54.41-24.36 54.41-54.41 0-30.05-24.36-54.41-54.41-54.41-30.05 0-54.41 24.36-54.41 54.41 0 30.05 24.36 54.41 54.41 54.41Z" clip-rule="evenodd"/><mask id="f" width="125" height="125" x="20" y="0" maskUnits="userSpaceOnUse" style="mask-type:alpha"><path fill="url(#e)" fill-rule="evenodd" d="M82.347 124.347c34.154 0 61.842-27.687 61.842-61.841 0-34.155-27.688-61.842-61.842-61.842-34.154 0-61.841 27.687-61.841 61.841 0 34.155 27.687 61.842 61.841 61.842Zm0-7.432c30.05 0 54.41-24.36 54.41-54.41 0-30.05-24.36-54.41-54.41-54.41-30.05 0-54.41 24.36-54.41 54.41 0 30.05 24.36 54.41 54.41 54.41Z" clip-rule="evenodd"/></mask><g mask="url(#f)"><path fill="#0500FF" d="m140.413 25.983 9.131 16.744-22.464 8.619-6.305-10.98 19.638-14.383Z"/><path fill="#fff" d="m77.172 140.294 48.161-14.06-17.054-22.901-28.794 4.882-2.313 32.079Z"/><path fill="#0500FF" d="m40.326 10.076 11.362-6.684 7.847 16.666-7.847 5.817-11.362-15.799ZM22.963 27.842 35.11 14.206l14.536 16.71-6.755 10.571-19.927-13.645Z"/></g><circle cx="82.347" cy="62.503" r="53.994" stroke="url(#g)" stroke-width=".832"/><circle cx="82.346" cy="62.504" r="61.425" stroke="#0500FF" stroke-width=".832"/><path fill="#fff" stroke="#0500FF" stroke-width=".538" d="M17.871 40.976h128.951v43.053H17.871z"/><path fill="#000" d="m30.465 62.845-2.516 2.515-2.537-2.515 2.537-2.537 2.516 2.537Zm6.146-6.146 4.33 4.33 2.537-2.537-6.867-6.845-6.868 6.867 2.537 2.537 4.33-4.352Zm8.661 3.609-2.515 2.537 2.537 2.537 2.537-2.537-2.559-2.537Zm-8.661 8.683-4.331-4.353-2.537 2.538 6.868 6.867 6.867-6.867-2.537-2.538-4.33 4.353Zm0-3.63 2.537-2.538-2.537-2.515-2.537 2.537 2.537 2.515Zm26.684.262v-.044c0-1.64-.875-2.471-2.297-3.018.875-.481 1.619-1.269 1.619-2.647v-.044c0-1.924-1.553-3.171-4.047-3.171h-5.708v12.27h5.84c2.777.022 4.593-1.115 4.593-3.346Zm-3.369-5.25c0 .92-.743 1.29-1.946 1.29h-2.494v-2.602h2.669c1.137 0 1.771.46 1.771 1.269v.044Zm.678 4.9c0 .918-.721 1.334-1.902 1.334h-3.216v-2.69h3.128c1.378 0 1.99.503 1.99 1.334v.022Zm8.356 3.696V56.7h-2.713v12.27h2.713Zm14.523.022V56.7h-2.669v7.568L75.062 56.7h-2.494v12.27h2.669v-7.786l5.949 7.808h2.297Zm14.96 0-5.271-12.358h-2.493l-5.272 12.358h2.778l1.116-2.756h5.183l1.116 2.756h2.843Zm-4.921-5.14h-3.259l1.64-3.98 1.619 3.98Zm17.804 5.14V56.7h-2.669v7.568l-5.752-7.568h-2.493v12.27h2.668v-7.786l5.949 7.808h2.297Zm13.932-1.99-1.728-1.728c-.962.875-1.815 1.443-3.237 1.443-2.099 0-3.565-1.75-3.565-3.85v-.065c0-2.1 1.488-3.827 3.565-3.827 1.225 0 2.188.525 3.15 1.378l1.728-1.99c-1.137-1.116-2.515-1.904-4.834-1.904-3.762 0-6.408 2.866-6.408 6.343v.044c0 3.521 2.69 6.321 6.299 6.321 2.362.022 3.762-.81 5.03-2.165Zm11.527 1.968v-2.384h-6.671v-2.58h5.796v-2.407h-5.796v-2.493h6.583v-2.406h-9.251v12.27h9.339Z"/><defs><linearGradient id="a" x1="167.762" x2="136.756" y1="69.549" y2="69.549" gradientUnits="userSpaceOnUse"><stop offset=".06" stop-color="#2ECCFF"/><stop offset=".777" stop-color="#0500FF"/></linearGradient><linearGradient id="b" x1="-3.069" x2="27.936" y1="69.549" y2="69.549" gradientUnits="userSpaceOnUse"><stop offset=".188" stop-color="#2ECCFF"/><stop offset=".777" stop-color="#0500FF"/></linearGradient><linearGradient id="c" x1="82.346" x2="82.346" y1=".662" y2="124.345" gradientUnits="userSpaceOnUse"><stop offset=".046" stop-color="#2ECCFF"/><stop offset="1" stop-color="#0500FF"/></linearGradient><linearGradient id="d" x1="45.74" x2="120.91" y1="16.225" y2="127.227" gradientUnits="userSpaceOnUse"><stop offset=".06" stop-color="#fff"/><stop offset=".777" stop-color="#fff" stop-opacity="0"/></linearGradient><linearGradient id="e" x1="82.347" x2="82.347" y1=".664" y2="124.347" gradientUnits="userSpaceOnUse"><stop offset=".06" stop-color="#FFF8A3"/><stop offset=".777" stop-color="#FFAEFE"/></linearGradient><linearGradient id="g" x1="82.347" x2="82.347" y1="8.094" y2="116.913" gradientUnits="userSpaceOnUse"><stop offset=".06" stop-color="#FFF8A3"/><stop offset=".777" stop-color="#FFAEFE"/></linearGradient></defs></svg>